<svg width="129" height="129" viewBox="0 0 129 129" fill="none" xmlns="http://www.w3.org/2000/svg">
<circle cx="64.4639" cy="64.1476" r="64" fill="url(#paint0_linear_1341_1477)"/>
<path d="M76.2713 48.6637C77.4971 64.5992 68.9165 71.954 64.0132 71.954C52.2455 71.954 50.1208 56.4272 50.5294 48.6637C51.7552 33.954 49.3036 24.1476 40.7229 24.1476C37.0455 24.1476 28.4648 24.1476 28.4648 35.1798C28.4648 41.3089 43.1745 52.3411 44.4003 62.1476C45.6261 71.954 45.6261 100.148 64.0132 100.148C78.7229 100.148 82.4003 74.8142 82.4003 62.1476C82.4003 52.3411 98.3358 44.9863 98.3358 35.1798C98.3358 30.2766 94.6584 24.1476 89.7552 24.1476C76.2713 24.1476 76.2713 31.5024 76.2713 48.6637Z" fill="white"/>
<defs>
<linearGradient id="paint0_linear_1341_1477" x1="18.4639" y1="16.1476" x2="64.4639" y2="128.148" gradientUnits="userSpaceOnUse">
<stop stop-color="#12A77F"/>
<stop offset="1" stop-color="#2E73A6"/>
</linearGradient>
</defs>
</svg>
